<svg width="288" height="281" viewBox="0 0 288 281" fill="none" xmlns="http://www.w3.org/2000/svg">
<g filter="url(#filter0_d_36_69)">
<path d="M22.6938 147.032L22.639 149.956L83.139 164.956L83.4738 165.039L83.8113 164.967L265.311 126.467L265.407 123.556L210.407 108.056L210.053 107.957L209.694 108.032L22.6938 147.032Z" fill="#676767" stroke="white" stroke-width="3"/>
<path d="M22.7034 67.5296L21.5 67.7723V69V148.5V150.333L23.2966 149.97L261.297 101.97L263.458 101.535L262.259 99.6844L239.735 64.9191L262.329 21.6949L263.786 18.9079L260.703 19.5296L22.7034 67.5296Z" fill="#F56969" stroke="white" stroke-width="3"/>
<path d="M265.297 205.97L266.5 205.728L266.5 204.5L266.5 125L266.5 123.167L264.703 123.53L26.7035 171.53L24.5424 171.965L25.7411 173.816L48.2651 208.581L25.6707 251.805L24.2138 254.592L27.2966 253.97L265.297 205.97Z" fill="#F5D669" stroke="white" stroke-width="3"/>
<path d="M114.967 195.671C115.417 197.855 115.429 199.847 115.002 201.646C114.588 203.427 113.831 204.995 112.731 206.352C111.648 207.705 110.277 208.835 108.619 209.742C106.977 210.645 105.144 211.306 103.12 211.723C102.339 211.884 101.456 211.958 100.473 211.944C99.5058 211.927 98.5127 211.866 97.4939 211.76C96.4717 211.639 95.4781 211.495 94.5132 211.328C93.5608 211.142 92.7091 210.96 91.9579 210.783L90.9798 200.714C92.5024 201.248 94.1289 201.561 95.8596 201.653C97.6029 201.726 99.2715 201.598 100.866 201.269C101.169 201.207 101.534 201.123 101.961 201.019C102.384 200.898 102.776 200.743 103.136 200.552C103.508 200.343 103.805 200.09 104.027 199.795C104.248 199.5 104.313 199.13 104.221 198.683C104.159 198.38 104.011 198.145 103.777 197.977C103.539 197.793 103.256 197.669 102.927 197.604C102.595 197.523 102.231 197.49 101.835 197.505C101.436 197.504 101.05 197.526 100.676 197.569C100.303 197.613 99.9572 197.668 99.6384 197.733C99.3196 197.799 99.0645 197.852 98.8732 197.891C97.5023 198.173 96.2017 198.192 94.9713 197.947C93.7569 197.699 92.6561 197.236 91.669 196.559C90.6945 195.862 89.8642 194.978 89.1781 193.906C88.4886 192.819 88.0026 191.589 87.7201 190.219C87.3325 188.337 87.3605 186.579 87.8042 184.942C88.2606 183.285 89.0117 181.81 90.0575 180.514C91.1159 179.199 92.4086 178.093 93.9356 177.197C95.4625 176.301 97.1028 175.672 98.8563 175.31C99.6374 175.15 100.449 175.015 101.291 174.908C102.13 174.785 102.971 174.712 103.813 174.688C104.672 174.66 105.514 174.678 106.342 174.74C107.169 174.802 107.967 174.929 108.738 175.119L109.83 185.014C108.67 184.871 107.468 184.803 106.223 184.81C104.991 184.798 103.809 184.909 102.677 185.142C102.47 185.185 102.201 185.249 101.869 185.333C101.55 185.399 101.212 185.494 100.856 185.617C100.512 185.721 100.164 185.851 99.8141 186.006C99.4639 186.162 99.1601 186.34 98.9027 186.543C98.6421 186.73 98.4471 186.953 98.3177 187.212C98.1883 187.471 98.1628 187.751 98.2412 188.05C98.3294 188.398 98.5161 188.658 98.8012 188.832C99.099 188.987 99.4523 189.089 99.8611 189.137C100.283 189.167 100.729 189.158 101.202 189.11C101.69 189.06 102.167 188.995 102.632 188.915C103.094 188.82 103.525 188.731 103.923 188.649C104.319 188.551 104.647 188.492 104.909 188.471C106.2 188.288 107.404 188.322 108.519 188.574C109.635 188.827 110.622 189.263 111.481 189.883C112.356 190.501 113.087 191.306 113.674 192.298C114.273 193.271 114.705 194.396 114.967 195.671ZM145.195 185.104C145.494 186.555 145.616 187.992 145.56 189.416C145.501 190.824 145.275 192.184 144.88 193.495C144.502 194.803 143.96 196.044 143.255 197.22C142.562 198.376 141.723 199.422 140.735 200.357C139.764 201.288 138.658 202.089 137.417 202.76C136.173 203.416 134.809 203.896 133.327 204.202C131.892 204.497 130.483 204.596 129.101 204.499C127.734 204.399 126.417 204.138 125.151 203.718C123.881 203.282 122.688 202.696 121.573 201.962C120.471 201.209 119.476 200.334 118.589 199.337C117.715 198.32 116.96 197.196 116.324 195.965C115.704 194.73 115.248 193.403 114.955 191.984C114.67 190.597 114.558 189.208 114.62 187.816C114.679 186.408 114.897 185.05 115.276 183.742C115.67 182.431 116.212 181.189 116.901 180.017C117.59 178.845 118.411 177.787 119.363 176.843C120.331 175.895 121.42 175.089 122.629 174.425C123.838 173.76 125.16 173.28 126.594 172.984C128.906 172.508 131.084 172.433 133.129 172.759C135.19 173.083 137.027 173.776 138.642 174.839C140.27 175.883 141.646 177.278 142.77 179.023C143.907 180.75 144.715 182.777 145.195 185.104ZM134.706 187.914C134.565 187.229 134.325 186.588 133.987 185.993C133.661 185.379 133.255 184.865 132.771 184.449C132.283 184.018 131.721 183.71 131.085 183.525C130.461 183.322 129.783 183.295 129.05 183.446C128.3 183.601 127.659 183.874 127.125 184.267C126.591 184.659 126.158 185.139 125.826 185.706C125.507 186.254 125.301 186.869 125.21 187.553C125.114 188.221 125.139 188.905 125.284 189.607C125.422 190.276 125.655 190.926 125.985 191.556C126.314 192.186 126.726 192.733 127.22 193.196C127.714 193.659 128.275 194.001 128.902 194.22C129.545 194.437 130.241 194.468 130.99 194.313C131.739 194.159 132.379 193.878 132.91 193.469C133.453 193.041 133.881 192.538 134.194 191.958C134.503 191.363 134.702 190.715 134.79 190.016C134.879 189.316 134.851 188.615 134.706 187.914ZM176.424 178.669C176.722 180.119 176.844 181.557 176.789 182.981C176.73 184.389 176.503 185.748 176.109 187.059C175.73 188.367 175.188 189.609 174.483 190.784C173.791 191.941 172.951 192.986 171.964 193.921C170.993 194.852 169.886 195.654 168.645 196.325C167.401 196.98 166.038 197.46 164.555 197.766C163.121 198.062 161.712 198.161 160.329 198.064C158.962 197.963 157.646 197.703 156.379 197.282C155.109 196.846 153.917 196.261 152.802 195.527C151.699 194.773 150.705 193.898 149.818 192.901C148.944 191.885 148.189 190.761 147.553 189.529C146.933 188.294 146.476 186.967 146.184 185.549C145.898 184.162 145.786 182.772 145.848 181.38C145.907 179.972 146.126 178.614 146.504 177.307C146.899 175.996 147.441 174.754 148.13 173.582C148.819 172.409 149.639 171.351 150.592 170.407C151.56 169.46 152.648 168.654 153.857 167.989C155.066 167.325 156.388 166.844 157.823 166.549C160.134 166.072 162.313 165.997 164.357 166.324C166.418 166.647 168.256 167.34 169.871 168.403C171.499 169.447 172.875 170.842 173.999 172.588C175.136 174.314 175.944 176.341 176.424 178.669ZM165.935 181.478C165.794 180.793 165.554 180.153 165.215 179.558C164.889 178.944 164.484 178.429 163.999 178.014C163.512 177.582 162.95 177.274 162.313 177.09C161.69 176.886 161.011 176.86 160.278 177.011C159.529 177.165 158.887 177.439 158.353 177.831C157.819 178.224 157.386 178.703 157.055 179.27C156.735 179.818 156.53 180.434 156.438 181.117C156.343 181.785 156.368 182.47 156.512 183.171C156.65 183.841 156.884 184.49 157.213 185.12C157.542 185.751 157.954 186.297 158.448 186.76C158.943 187.223 159.503 187.565 160.13 187.785C160.773 188.001 161.469 188.032 162.218 187.878C162.968 187.723 163.608 187.442 164.138 187.034C164.682 186.606 165.11 186.102 165.422 185.523C165.732 184.927 165.931 184.28 166.019 183.58C166.107 182.88 166.079 182.18 165.935 181.478ZM207.03 154.215L211.99 186.994L199.697 190.723L189.424 174.743L192.019 192.655L181.258 194.872L175.132 160.788L186.969 157.75L198.791 173.262L195.822 156.923L207.03 154.215Z" fill="black"/>
<path d="M67.1794 84.6077L67.919 94.9744C67.4305 94.9421 66.9501 94.9497 66.4779 94.9971C66.0058 95.0445 65.5386 95.1158 65.0763 95.2111C63.8966 95.4541 62.8056 95.845 61.8032 96.3839C60.7975 96.9068 59.9459 97.5724 59.2483 98.3808C58.5666 99.186 58.0772 100.118 57.7801 101.176C57.4989 102.231 57.4913 103.404 57.7573 104.695C57.928 105.524 58.2034 106.215 58.5832 106.769C58.979 107.319 59.4571 107.743 60.0174 108.044C60.5777 108.344 61.2044 108.522 61.8974 108.579C62.5904 108.635 63.3275 108.583 64.1086 108.422C64.6984 108.301 65.299 108.11 65.9104 107.852C66.5218 107.593 67.117 107.296 67.696 106.96C68.275 106.625 68.8315 106.261 69.3655 105.869C69.8995 105.476 70.3841 105.085 70.8191 104.697L72.1778 116.132C71.6218 116.579 71.0034 117.006 70.3226 117.412C69.6545 117.799 68.9576 118.167 68.2318 118.516C67.5027 118.849 66.7655 119.142 66.02 119.395C65.2745 119.648 64.5511 119.847 63.8496 119.992C61.8251 120.409 59.8589 120.423 57.951 120.035C56.0431 119.647 54.3089 118.933 52.7484 117.891C51.1878 116.85 49.8507 115.522 48.737 113.907C47.6359 112.272 46.8735 110.427 46.4499 108.371C45.8883 105.645 45.7502 102.998 46.0355 100.43C46.3174 97.8456 47.0284 95.489 48.1685 93.3597C49.3086 91.2304 50.8861 89.4099 52.9012 87.898C54.9322 86.3828 57.4063 85.3248 60.3236 84.7238C61.4235 84.4973 62.5654 84.3534 63.7493 84.2923C64.9492 84.228 66.0925 84.3331 67.1794 84.6077ZM101.402 95.0066C101.701 96.4573 101.823 97.8946 101.767 99.3185C101.708 100.727 101.481 102.086 101.087 103.397C100.708 104.705 100.166 105.946 99.461 107.122C98.7686 108.278 97.9287 109.324 96.9414 110.258C95.97 111.19 94.8638 111.991 93.6227 112.662C92.3784 113.317 91.015 113.797 89.5324 114.103C88.0977 114.398 86.689 114.497 85.3063 114.4C83.9395 114.299 82.6229 114.039 81.3564 113.618C80.0867 113.182 78.8943 112.597 77.7792 111.863C76.6768 111.109 75.6822 110.234 74.7955 109.237C73.9214 108.22 73.1664 107.096 72.5304 105.865C71.9104 104.63 71.4543 103.303 71.1621 101.884C70.8764 100.497 70.7646 99.1077 70.8268 97.7156C70.8857 96.3076 71.1045 94.9497 71.4833 93.642C71.8779 92.331 72.4198 91.0893 73.1089 89.9171C73.798 88.7448 74.6186 87.6867 75.5708 86.7428C76.5389 85.7955 77.6276 84.9897 78.8367 84.3251C80.0459 83.6606 81.3678 83.1806 82.8025 82.885C85.114 82.4088 87.2922 82.3341 89.337 82.6606C91.3977 82.9839 93.2355 83.6772 94.8504 84.7404C96.478 85.7844 97.8538 87.1794 98.9779 88.9253C100.115 90.6521 100.923 92.6792 101.402 95.0066ZM90.9133 97.8154C90.7721 97.1299 90.5322 96.4897 90.1936 95.8947C89.8677 95.2805 89.4625 94.7657 88.9782 94.3504C88.4905 93.9191 87.9285 93.6111 87.2922 93.4264C86.6686 93.2225 85.9901 93.1961 85.2568 93.3472C84.5076 93.5015 83.866 93.7749 83.332 94.1674C82.798 94.5599 82.365 95.0397 82.0331 95.6066C81.7139 96.1542 81.5083 96.7699 81.4165 97.4535C81.3214 98.1212 81.3461 98.8058 81.4906 99.5072C81.6285 100.177 81.8621 100.827 82.1913 101.457C82.5205 102.087 82.9323 102.633 83.4265 103.097C83.9207 103.56 84.4813 103.901 85.1082 104.121C85.7511 104.338 86.4471 104.369 87.1964 104.214C87.9456 104.06 88.5856 103.779 89.1163 103.37C89.6597 102.943 90.0877 102.439 90.4004 101.859C90.7098 101.264 90.9087 100.616 90.9973 99.9168C91.0858 99.2173 91.0578 98.5168 90.9133 97.8154ZM136.34 69.0647L141.371 104.621L130.566 107.345L126.849 88.8175L124.996 104.753L120.788 105.62L114.261 93.0556L117.405 108.56L106.427 111.171L100.098 78.026L112.29 75.0159L120.429 89.8408L123.475 71.7147L136.34 69.0647ZM151.268 67.2358L155.347 100.346L145.364 102.951L138.685 70.5259L151.268 67.2358ZM185.334 59.5702L190.292 92.3495L177.998 96.0784L167.727 80.0975L170.32 98.0091L159.559 100.226L153.435 66.1412L165.273 63.1044L177.093 78.6167L174.126 62.2777L185.334 59.5702ZM222.215 82.6325C221.66 83.7274 220.904 84.7388 219.949 85.6668C218.993 86.5948 217.934 87.4197 216.77 88.1414C215.605 88.8632 214.385 89.4719 213.108 89.9676C211.834 90.4793 210.599 90.8583 209.403 91.1046C207.092 91.5807 204.878 91.6047 202.763 91.1764C200.647 90.748 198.731 89.9547 197.013 88.7963C195.308 87.6187 193.853 86.1236 192.649 84.3111C191.445 82.4985 190.608 80.4525 190.138 78.1729C189.78 76.4353 189.63 74.6965 189.687 72.9565C189.741 71.2005 189.983 69.5137 190.414 67.8961C190.858 66.2592 191.488 64.717 192.303 63.2695C193.115 61.806 194.106 60.4884 195.277 59.3166C196.449 58.1447 197.788 57.1459 199.296 56.32C200.805 55.4942 202.476 54.8924 204.309 54.5148C204.994 54.3736 205.734 54.2544 206.528 54.1572C207.319 54.0442 208.112 53.9805 208.907 53.9664C209.714 53.933 210.509 53.9603 211.292 54.0484C212.074 54.1365 212.805 54.2935 213.483 54.5194L214.695 63.7917C213.733 63.6408 212.763 63.6081 211.783 63.6935C210.816 63.7598 209.879 63.8865 208.97 64.0736C207.695 64.3363 206.54 64.7819 205.506 65.4103C204.485 66.0195 203.636 66.7761 202.958 67.6802C202.296 68.5809 201.834 69.6067 201.573 70.7573C201.311 71.9079 201.317 73.1448 201.589 74.468C201.76 75.2969 202.037 76.079 202.421 76.8141C202.802 77.5333 203.278 78.1498 203.849 78.6637C204.433 79.1583 205.098 79.5199 205.843 79.7486C206.604 79.9741 207.431 79.9949 208.323 79.811C208.929 79.6862 209.534 79.4784 210.139 79.1876C210.76 78.8936 211.262 78.5076 211.645 78.0298L211.357 76.145L205.598 77.2315L204.408 69.9988C206.766 69.4298 209.128 68.8768 211.494 68.3396C213.856 67.7866 216.231 67.2143 218.618 66.6228L222.215 82.6325Z" fill="black"/>
</g>
<defs>
<filter id="filter0_d_36_69" x="0" y="0.815735" width="288" height="279.868" filterUnits="userSpaceOnUse" color-interpolation-filters="sRGB">
<feFlood flood-opacity="0" result="BackgroundImageFix"/>
<feColorMatrix in="SourceAlpha" type="matrix" values="0 0 0 0 0 0 0 0 0 0 0 0 0 0 0 0 0 0 127 0" result="hardAlpha"/>
<feOffset dy="4"/>
<feGaussianBlur stdDeviation="10"/>
<feComposite in2="hardAlpha" operator="out"/>
<feColorMatrix type="matrix" values="0 0 0 0 1 0 0 0 0 1 0 0 0 0 1 0 0 0 1 0"/>
<feBlend mode="color-dodge" in2="BackgroundImageFix" result="effect1_dropShadow_36_69"/>
<feBlend mode="normal" in="SourceGraphic" in2="effect1_dropShadow_36_69" result="shape"/>
</filter>
</defs>
</svg>
