<svg width="347" height="394" viewBox="0 0 347 394" fill="none" xmlns="http://www.w3.org/2000/svg">
<mask id="mask0_289_1303" style="mask-type:alpha" maskUnits="userSpaceOnUse" x="0" y="0" width="347" height="394">
<path d="M0 45C0 20.1472 20.1472 0 45 0H302C326.853 0 347 20.1472 347 45V349C347 373.853 326.853 394 302 394H45C20.1472 394 0 373.853 0 349V45Z" fill="#BC76E4"/>
</mask>
<g mask="url(#mask0_289_1303)">
<path d="M0 45C0 20.1472 20.1472 0 45 0H302C326.853 0 347 20.1472 347 45V349C347 373.853 326.853 394 302 394H45C20.1472 394 0 373.853 0 349V45Z" fill="#1466E1"/>
<circle cx="173" cy="505" r="264" fill="#4388EF"/>
<path d="M45 2.5H302C325.472 2.5 344.5 21.5279 344.5 45V349C344.5 372.472 325.472 391.5 302 391.5H45C21.5279 391.5 2.5 372.472 2.5 349V45C2.5 21.5279 21.5279 2.5 45 2.5Z" stroke="white" stroke-width="5"/>
</g>
</svg>
