<svg width="40" height="40" viewBox="0 0 40 40" fill="none" xmlns="http://www.w3.org/2000/svg">
<path d="M36.6667 33.45V20.3C36.6667 10.9667 29.1667 3.33334 20 3.33334C10.8333 3.33334 3.33333 10.9667 3.33333 20.3V33.45C3.33333 35.55 4.5833 36.1167 6.11663 34.7167L7.7833 33.2C8.39997 32.6334 9.40001 32.6334 10.0167 33.2L13.35 36.25C13.9667 36.8167 14.9666 36.8167 15.5833 36.25L18.9166 33.2C19.5333 32.6334 20.5333 32.6334 21.15 33.2L24.4833 36.25C25.1 36.8167 26.1 36.8167 26.7167 36.25L30.05 33.2C30.6667 32.6334 31.6667 32.6334 32.2833 33.2L33.95 34.7167C35.4167 36.1167 36.6667 35.55 36.6667 33.45Z" stroke="white" stroke-width="3" stroke-linecap="round" stroke-linejoin="round"/>
</svg>
