<svg width="40" height="40" viewBox="0 0 40 40" fill="none" xmlns="http://www.w3.org/2000/svg">
<path d="M36.6667 33.4501V20.3C36.6667 10.9667 29.1667 3.33337 20 3.33337C10.8334 3.33337 3.33337 10.9667 3.33337 20.3V33.4501C3.33337 35.5501 4.58335 36.1167 6.11668 34.7167L7.78335 33.2001C8.40001 32.6334 9.40006 32.6334 10.0167 33.2001L13.3501 36.25C13.9667 36.8167 14.9667 36.8167 15.5833 36.25L18.9167 33.2001C19.5333 32.6334 20.5334 32.6334 21.15 33.2001L24.4834 36.25C25.1 36.8167 26.1001 36.8167 26.7168 36.25L30.0501 33.2001C30.6668 32.6334 31.6667 32.6334 32.2834 33.2001L33.95 34.7167C35.4167 36.1167 36.6667 35.5501 36.6667 33.4501Z" stroke="#172038" stroke-width="3" stroke-linecap="round" stroke-linejoin="round"/>
<path d="M13.3334 23.3334C17.2834 26.3 22.7167 26.3 26.6667 23.3334" stroke="#172038" stroke-width="3" stroke-linecap="round" stroke-linejoin="round"/>
<path d="M20 18.3333C21.8409 18.3333 23.3333 16.8409 23.3333 15C23.3333 13.159 21.8409 11.6666 20 11.6666C18.159 11.6666 16.6666 13.159 16.6666 15C16.6666 16.8409 18.159 18.3333 20 18.3333Z" stroke="#172038" stroke-width="3" stroke-linecap="round" stroke-linejoin="round"/>
</svg>
