<svg width="46" height="46" viewBox="0 0 46 46" fill="none" xmlns="http://www.w3.org/2000/svg">
<path d="M3.83337 17.25V12.4584C3.83337 7.68587 7.68587 3.83337 12.4584 3.83337H17.25" stroke="white" stroke-width="3" stroke-linecap="round" stroke-linejoin="round"/>
<path d="M28.75 3.83337H33.5417C38.3142 3.83337 42.1667 7.68587 42.1667 12.4584V17.25" stroke="white" stroke-width="3" stroke-linecap="round" stroke-linejoin="round"/>
<path d="M42.1666 30.6666V33.5416C42.1666 38.3141 38.3141 42.1666 33.5416 42.1666H30.6666" stroke="white" stroke-width="3" stroke-linecap="round" stroke-linejoin="round"/>
<path d="M17.25 42.1667H12.4584C7.68587 42.1667 3.83337 38.3142 3.83337 33.5417V28.75" stroke="white" stroke-width="3" stroke-linecap="round" stroke-linejoin="round"/>
<path d="M20.125 13.4166V17.25C20.125 19.1666 19.1666 20.125 17.25 20.125H13.4166C11.5 20.125 10.5416 19.1666 10.5416 17.25V13.4166C10.5416 11.5 11.5 10.5416 13.4166 10.5416H17.25C19.1666 10.5416 20.125 11.5 20.125 13.4166Z" stroke="white" stroke-width="3" stroke-linecap="round" stroke-linejoin="round"/>
<path d="M35.4583 13.4166V17.25C35.4583 19.1666 34.5 20.125 32.5833 20.125H28.75C26.8333 20.125 25.875 19.1666 25.875 17.25V13.4166C25.875 11.5 26.8333 10.5416 28.75 10.5416H32.5833C34.5 10.5416 35.4583 11.5 35.4583 13.4166Z" stroke="white" stroke-width="3" stroke-linecap="round" stroke-linejoin="round"/>
<path d="M20.125 28.75V32.5833C20.125 34.5 19.1666 35.4583 17.25 35.4583H13.4166C11.5 35.4583 10.5416 34.5 10.5416 32.5833V28.75C10.5416 26.8333 11.5 25.875 13.4166 25.875H17.25C19.1666 25.875 20.125 26.8333 20.125 28.75Z" stroke="white" stroke-width="3" stroke-linecap="round" stroke-linejoin="round"/>
<path d="M35.4583 28.75V32.5833C35.4583 34.5 34.5 35.4583 32.5833 35.4583H28.75C26.8333 35.4583 25.875 34.5 25.875 32.5833V28.75C25.875 26.8333 26.8333 25.875 28.75 25.875H32.5833C34.5 25.875 35.4583 26.8333 35.4583 28.75Z" stroke="white" stroke-width="3" stroke-linecap="round" stroke-linejoin="round"/>
</svg>
