<svg width="40" height="40" viewBox="0 0 40 40" fill="none" xmlns="http://www.w3.org/2000/svg">
<path d="M13.9667 20L17.9833 24.0333L26.0333 15.9667" stroke="white" stroke-width="3" stroke-linecap="round" stroke-linejoin="round"/>
<path d="M17.9167 4.08333C19.0667 3.09999 20.95 3.09999 22.1167 4.08333L24.75 6.34999C25.25 6.78333 26.1833 7.13333 26.85 7.13333H29.6833C31.45 7.13333 32.9 8.58333 32.9 10.35V13.1833C32.9 13.8333 33.25 14.7833 33.6833 15.2833L35.95 17.9167C36.9333 19.0667 36.9333 20.95 35.95 22.1167L33.6833 24.75C33.25 25.25 32.9 26.1833 32.9 26.85V29.6833C32.9 31.45 31.45 32.9 29.6833 32.9H26.85C26.2 32.9 25.25 33.25 24.75 33.6833L22.1167 35.95C20.9667 36.9333 19.0833 36.9333 17.9167 35.95L15.2833 33.6833C14.7833 33.25 13.85 32.9 13.1833 32.9H10.3C8.53333 32.9 7.08333 31.45 7.08333 29.6833V26.8333C7.08333 26.1833 6.73333 25.25 6.31667 24.75L4.06667 22.1C3.1 20.95 3.1 19.0833 4.06667 17.9333L6.31667 15.2833C6.73333 14.7833 7.08333 13.85 7.08333 13.2V10.3333C7.08333 8.56666 8.53333 7.11666 10.3 7.11666H13.1833C13.8333 7.11666 14.7833 6.76666 15.2833 6.33333L17.9167 4.08333Z" stroke="white" stroke-width="3" stroke-linecap="round" stroke-linejoin="round"/>
</svg>
